<svg width="14" height="14" viewBox="0 0 14 14" fill="none" xmlns="http://www.w3.org/2000/svg">
<path d="M4.08334 8.36107C4.08334 7.28718 4.9539 6.41663 6.02779 6.41663H7.97223C9.04612 6.41663 9.91668 7.28718 9.91668 8.36107V9.33329C9.91668 10.9441 8.61084 12.25 7.00001 12.25V12.25C5.38918 12.25 4.08334 10.9441 4.08334 9.33329V8.36107Z" stroke="#0C9500"/>
<path d="M5.25 5.25C5.25 4.2835 6.0335 3.5 7 3.5V3.5C7.9665 3.5 8.75 4.2835 8.75 5.25V6.41667H5.25V5.25Z" stroke="#0C9500"/>
<path d="M7 6.41663V8.74996" stroke="#0C9500"/>
<path d="M8.75 1.75L7.58333 3.5" stroke="#0C9500"/>
<path d="M5.25 1.75L6.41667 3.5" stroke="#0C9500"/>
<path d="M4.08334 9.33337H1.16668" stroke="#0C9500"/>
<path d="M12.8333 9.33337H9.91668" stroke="#0C9500"/>
<path d="M11.6667 5.25V5.83333C11.6667 6.79983 10.8832 7.58333 9.91666 7.58333V7.58333" stroke="#0C9500"/>
<path d="M11.6667 12.8334V12.8334C11.6667 11.8669 10.8832 11.0834 9.91666 11.0834V11.0834" stroke="#0C9500"/>
<path d="M2.33334 5.25V5.83333C2.33334 6.79983 3.11685 7.58333 4.08334 7.58333V7.58333" stroke="#0C9500"/>
<path d="M2.33334 12.8334V12.8334C2.33334 11.8669 3.11685 11.0834 4.08334 11.0834V11.0834" stroke="#0C9500"/>
</svg>
