<svg xmlns="http://www.w3.org/2000/svg" version="1.1" viewBox="0.8838707208633423 0.9285461902618408 507.1276550292969 403.9002685546875" width="509.00" height="406.00">
<g stroke-width="2.00" fill="none" stroke-linecap="butt">
<path stroke="#88a160" d="&#10;  M 340.86 251.50&#10;  Q 335.69 247.27 330.46 243.46&#10;  Q 324.94 239.45 319.89 235.58&#10;  Q 312.45 229.87 306.46 225.45&#10;  Q 302.70 222.68 298.95 219.81&#10;  C 296.36 217.82 293.40 216.53 290.99 214.19&#10;  C 288.37 211.66 285.18 210.17 282.50 207.74&#10;  Q 278.43 204.05 273.66 201.00&#10;  C 271.60 199.69 270.09 197.79 268.04 196.43&#10;  C 265.36 194.66 263.33 192.35 260.61 190.61&#10;  Q 251.68 184.91 243.59 178.15"/>
<path stroke="#0bc97e" d="&#10;  M 168.59 240.46&#10;  Q 170.02 254.56 169.87 260.39&#10;  Q 169.20 285.64 169.15 293.41&#10;  Q 168.90 327.92 172.33 365.72&#10;  Q 173.91 383.06 180.40 404.28"/>
<path stroke="#0acb94" d="&#10;  M 81.91 156.36&#10;  C 91.49 186.60 98.56 218.63 98.52 250.35&#10;  Q 98.49 278.62 97.80 287.31&#10;  Q 97.00 297.23 94.11 314.68&#10;  Q 92.62 323.73 92.92 336.98"/>
</g>
<path fill="#9647d4" d="&#10;  M 454.55 135.30&#10;  C 443.23 146.68 431.23 158.14 420.42 169.51&#10;  Q 417.30 172.80 413.42 176.39&#10;  Q 410.32 179.26 404.45 181.06&#10;  Q 397.94 183.06 392.81 179.60&#10;  Q 388.12 176.43 384.89 172.99&#10;  Q 374.17 161.56 364.92 152.44&#10;  C 351.68 139.39 339.67 126.93 325.60 112.96&#10;  C 323.37 110.75 321.42 108.27 319.58 105.76&#10;  Q 318.75 104.62 319.77 103.65&#10;  Q 354.71 70.03 387.23 36.83&#10;  C 396.58 27.28 405.07 17.43 415.21 8.12&#10;  Q 418.64 4.98 422.31 3.59&#10;  Q 439.40 -2.87 453.28 6.35&#10;  Q 456.48 8.48 460.17 12.48&#10;  Q 463.13 15.69 466.97 19.41&#10;  Q 484.18 36.06 498.71 51.20&#10;  C 502.11 54.73 506.26 61.02 507.32 65.99&#10;  C 508.50 71.49 508.40 78.48 505.19 83.44&#10;  Q 502.18 88.07 498.46 91.72&#10;  Q 476.57 113.16 454.55 135.30&#10;  Z"/>
<path fill="#fe794f" d="&#10;  M 340.86 251.50&#10;  Q 335.69 247.27 330.46 243.46&#10;  Q 324.94 239.45 319.89 235.58&#10;  Q 312.45 229.87 306.46 225.45&#10;  Q 302.70 222.68 298.95 219.81&#10;  C 296.36 217.82 293.40 216.53 290.99 214.19&#10;  C 288.37 211.66 285.18 210.17 282.50 207.74&#10;  Q 278.43 204.05 273.66 201.00&#10;  C 271.60 199.69 270.09 197.79 268.04 196.43&#10;  C 265.36 194.66 263.33 192.35 260.61 190.61&#10;  Q 251.68 184.91 243.59 178.15&#10;  Q 265.12 157.96 285.32 137.06&#10;  C 287.72 134.57 290.21 132.19 293.82 131.55&#10;  C 299.10 130.62 305.23 131.24 309.13 135.28&#10;  Q 335.81 162.93 362.67 190.53&#10;  C 368.98 197.01 374.46 199.90 374.89 210.29&#10;  C 375.17 217.07 372.39 220.46 367.63 225.08&#10;  Q 354.12 238.18 340.86 251.50&#10;  Z"/>
<path fill="#10cc9c" d="&#10;  M 81.91 156.36&#10;  C 91.49 186.60 98.56 218.63 98.52 250.35&#10;  Q 98.49 278.62 97.80 287.31&#10;  Q 97.00 297.23 94.11 314.68&#10;  Q 92.62 323.73 92.92 336.98&#10;  Q 54.45 298.51 16.31 260.19&#10;  C 11.17 255.04 5.93 249.61 3.95 243.03&#10;  C 2.90 239.51 1.33 235.99 1.02 232.29&#10;  C 0.08 221.17 4.10 212.45 10.24 203.66&#10;  Q 13.02 199.66 17.56 195.66&#10;  C 23.12 190.76 28.46 184.82 33.85 179.53&#10;  Q 41.11 172.39 48.88 164.46&#10;  C 54.81 158.42 65.30 150.60 73.68 152.51&#10;  Q 76.73 153.20 81.91 156.36&#10;  Z"/>
<path fill="#04ca8b" d="&#10;  M 81.91 156.36&#10;  Q 88.87 160.59 94.87 166.88&#10;  Q 110.15 182.91 128.63 200.37&#10;  Q 137.07 208.35 164.86 237.39&#10;  Q 166.13 238.72 168.59 240.46&#10;  Q 170.02 254.56 169.87 260.39&#10;  Q 169.20 285.64 169.15 293.41&#10;  Q 168.90 327.92 172.33 365.72&#10;  Q 173.91 383.06 180.40 404.28&#10;  C 172.61 405.41 165.89 404.94 158.94 401.50&#10;  Q 155.31 399.70 151.01 395.48&#10;  Q 140.42 385.08 131.42 375.69&#10;  C 128.47 372.61 125.07 369.97 122.22 366.71&#10;  Q 116.78 360.48 110.53 354.44&#10;  Q 105.99 350.04 101.80 345.68&#10;  Q 97.43 341.14 92.92 336.98&#10;  Q 92.62 323.73 94.11 314.68&#10;  Q 97.00 297.23 97.80 287.31&#10;  Q 98.49 278.62 98.52 250.35&#10;  C 98.56 218.63 91.49 186.60 81.91 156.36&#10;  Z"/>
<path fill="#11c871" d="&#10;  M 243.59 178.15&#10;  Q 251.68 184.91 260.61 190.61&#10;  C 263.33 192.35 265.36 194.66 268.04 196.43&#10;  C 270.09 197.79 271.60 199.69 273.66 201.00&#10;  Q 278.43 204.05 282.50 207.74&#10;  C 285.18 210.17 288.37 211.66 290.99 214.19&#10;  C 293.40 216.53 296.36 217.82 298.95 219.81&#10;  Q 302.70 222.68 306.46 225.45&#10;  Q 312.45 229.87 319.89 235.58&#10;  Q 324.94 239.45 330.46 243.46&#10;  Q 335.69 247.27 340.86 251.50&#10;  Q 333.00 259.46 325.14 267.39&#10;  Q 301.45 291.27 276.74 315.40&#10;  Q 271.22 320.78 266.02 326.34&#10;  C 259.50 333.32 252.72 339.79 245.90 346.89&#10;  C 240.42 352.59 234.57 357.86 229.10 363.59&#10;  C 223.49 369.47 217.22 374.92 211.48 381.09&#10;  C 205.44 387.61 199.89 392.77 193.94 398.20&#10;  Q 188.23 403.41 180.40 404.28&#10;  Q 173.91 383.06 172.33 365.72&#10;  Q 168.90 327.92 169.15 293.41&#10;  Q 169.20 285.64 169.87 260.39&#10;  Q 170.02 254.56 168.59 240.46&#10;  C 173.57 243.89 177.44 242.56 181.51 238.52&#10;  Q 201.71 218.45 222.25 198.74&#10;  Q 224.15 196.92 232.80 188.32&#10;  Q 238.13 183.01 243.59 178.15&#10;  Z"/>
</svg>